<svg width="119" height="32" viewBox="0 0 119 32" fill="none" xmlns="http://www.w3.org/2000/svg">
<g clip-path="url(#clip0_308_3436)">
<path d="M56.3448 19.6055L60.6799 29.3707L65.3548 19.6055H67.7353L62.0408 31.8539H59.532L54.135 19.6055H56.3448Z" fill="white"/>
<path d="M44.13 31.8539L48.4651 22.0887L53.14 31.8539H55.5205L49.8259 19.6055H47.3171L41.9202 31.8539H44.13Z" fill="white"/>
<path d="M46.927 31.7718L48.7166 28.702L50.5062 31.7718H46.927Z" fill="#809DB1"/>
<path d="M68.5626 31.8539L72.8977 22.0887L77.574 31.8539H79.9531L74.2585 19.6055H71.7512L66.3528 31.8539H68.5626Z" fill="white"/>
<path d="M71.3621 31.7718L73.1516 28.702L74.9412 31.7718H71.3621Z" fill="#809DB1"/>
<path d="M92.9952 31.8539L97.3317 22.0887L102.007 31.8539H104.386L98.6912 19.6055H96.1838L90.7854 31.8539H92.9952Z" fill="white"/>
<path d="M95.7961 31.7718L97.5857 28.702L99.3753 31.7718H95.7961Z" fill="#809DB1"/>
<path d="M84.1469 31.8539H86.4428L86.4371 21.4853H90.359L90.366 19.6055H80.3886L80.3816 21.611H84.0158L84.1469 31.8539Z" fill="white"/>
<path d="M109.136 31.7719V27.6714H111.69L115.1 31.7719H118.097L114.333 27.5136C114.333 27.5136 117.361 26.8502 117.424 23.8516C117.424 23.8516 117.706 21.8628 115.927 20.2846C115.877 20.219 114.859 19.5193 113.982 19.5235H107.001V21.6184L113.865 21.5933C114.067 21.6025 114.265 21.6543 114.445 21.7451C114.626 21.8358 114.784 21.9636 114.911 22.1198C115.14 22.4103 115.305 22.9047 115.276 23.5402C115.275 23.8152 115.235 24.0887 115.158 24.353C114.982 24.8893 115.096 24.8879 114.099 25.4703L113.525 25.5388L107.097 25.6519L107.001 31.7761L109.136 31.7719Z" fill="white"/>
<path d="M0 31.8526L4.29275 25.9658H11.2396L6.93694 31.8526H0Z" fill="white"/>
<path d="M8.19231 31.8539L12.8842 25.2436H4.80493L8.71551 19.7409H16.4577L26.3688 6.30249L29.4177 11.9491L15.3521 31.8539H8.19231Z" fill="#809DB1"/>
<path d="M9.25952 18.9733H15.9694L25.8805 5.39938L22.9642 0L9.25952 18.9733Z" fill="white"/>
<path d="M40.1713 31.8539H30.8102L24.333 20.699L29.8386 12.7256L33.6857 19.7409H35.0296L38.4142 26.0034H37.1196L40.1713 31.8539Z" fill="white"/>
</g>
<defs>
<clipPath id="clip0_308_3436">
<rect width="118.097" height="31.854" fill="white"/>
</clipPath>
</defs>
</svg>
